<?xml version="1.0" encoding="UTF-8"?><svg id="Layer_2" xmlns="http://www.w3.org/2000/svg" viewBox="0 0 1074.8569 97.1963"><defs><style>.cls-1{isolation:isolate;}.cls-2{fill:#231f20;stroke-width:0px;}</style></defs><g id="Layer_2-2"><g class="cls-1"><path class="cls-2" d="M46.147,13.8848c-.4966,0-.916.3877-1.2612,1.1572-.3481.7725-.5195,1.3848-.5195,1.8379v66.0234c0,1.9971.3711,3.4941,1.1128,4.4922.7417.999,2.0034,1.6328,3.7837,1.9053,1.6812.2725,2.8936.5,3.6353.6807.7422.1836,1.1133.8174,1.1133,1.9062,0,2.0889-.9414,3.1309-2.8193,3.1309-.6934,0-2.3745-.1826-5.0449-.5449-2.6709-.3613-6.5288-.5439-11.5742-.5439s-8.9028.1826-11.5737.5439c-2.6709.3623-4.354.5449-5.0449.5449-1.8804,0-2.8193-.998-2.8193-2.9951,0-.9971.3203-1.6338.9648-1.9053.6421-.2725,1.7549-.5449,3.3384-.8174,1.9775-.3613,3.3389-.9531,4.0806-1.7695s1.1128-2.4033,1.1128-4.7646V17.0156c0-.5439-.1738-1.2012-.519-1.9736-.3481-.7695-.7676-1.1572-1.2617-1.1572h-1.7803c-2.2769,0-4.2798.7041-6.0098,2.1104-1.7314,1.4082-3.3892,3.1094-4.9707,5.1045-2.2764,2.9062-3.8579,5.2881-4.748,7.1475-.8901,1.8604-1.98,2.79-3.2646,2.79-1.3862,0-2.0771-.7695-2.0771-2.3135,0-.8174.3457-2.6084,1.0386-5.3779.6909-2.7666,1.5815-6.874,2.6709-12.3193.5938-2.2676,1.062-4.2646,1.4097-5.9902.3457-1.7227,1.1128-2.5859,2.2998-2.5859.4941,0,.8906.1592,1.187.4766.2969.3193.543.7041.7422,1.1572.1968.4551.3711.8848.519,1.293.1484.4082.3203.6592.5195.749.2969.999.6909,1.6328,1.187,1.9053.4941.2725,1.187.4082,2.0776.4082.5933,0,1.2612-.0205,2.0029-.0674.7417-.0449,1.6553-.0684,2.7451-.0684h31.9019c3.7583,0,6.7749-.0898,9.0513-.2725,2.2744-.1807,3.6099-.6807,4.0063-1.4971.5938,0,1.0391-.249,1.3354-.749.2969-.498.5938-1.0654.8906-1.7012.2964-.6338.6421-1.2021,1.0386-1.7021.394-.4971.9878-.748,1.7803-.748.6909,0,1.2358.4082,1.6323,1.2246.394.8164.5938,1.4531.5938,1.9062,0,2.0889-.2227,4.7881-.668,8.0996-.4448,3.3135-.8159,7.4658-1.1128,12.4561-.1992,1.9971-.4961,3.5391-.8901,4.6279-.3965,1.0889-1.1387,1.6338-2.2261,1.6338-1.2866,0-2.1768-.8613-2.6704-2.5869-.4966-1.7227-1.5352-4.2646-3.1162-7.623-1.0898-2.1777-2.3994-3.9688-3.9321-5.377-1.5347-1.4062-3.6353-2.1104-6.3062-2.1104h-3.561Z"/><path class="cls-2" d="M99.564,36.8906c0,.8174.1973,1.2256.5938,1.2256.0972,0,.4937-.2256,1.187-.6807l3.1157-2.042c1.6812-1.0889,3.6353-1.9951,5.8613-2.7227,2.2256-.7256,4.4746-1.0889,6.7515-1.0889,12.8579,0,19.2896,6.8379,19.2896,20.5107v29.4766c0,1.9932.1226,3.5098.3706,4.5518.2461,1.042.9136,1.8779,2.0034,2.5117.6909.3643,1.4326.5684,2.2256.6133.7905.0439,1.5327.1338,2.2256.2695.6909.1367,1.2617.3877,1.7065.749.4453.3613.668.9951.668,1.8994,0,1.6318-.8906,2.4463-2.6709,2.4463-.793,0-2.3003-.1572-4.5259-.4766-2.2256-.3174-5.2188-.4766-8.9771-.4766-5.3418,0-9.4731.1592-12.3896.4766-2.9189.3193-4.6255.4766-5.1191.4766-1.4839,0-2.2261-.8145-2.2261-2.4443,0-.9062.1719-1.54.5195-1.9014.3452-.3613.7905-.6104,1.3354-.7471.5425-.1357,1.1128-.2041,1.7065-.2041.6909,0,1.3354-.1338,1.9287-.4062,1.2847-.542,2.0771-1.333,2.374-2.376.2969-1.042.4453-2.6943.4453-4.958v-26.4795c0-10.1367-2.8701-15.208-8.606-15.208-4.0576,0-6.7031,1.4482-7.9385,4.3457-1.2383,2.8965-1.855,6.8359-1.855,11.8135v25.5283c0,1.9023.0972,3.3975.2969,4.4824.1968,1.0869.6909,1.9453,1.4839,2.5801.5933.3613,1.187.5889,1.7803.6777.5938.0918,1.1362.1836,1.6323.2725.4937.0918.9136.3174,1.2612.6787.3457.3613.5195.9951.5195,1.9014,0,1.6299-.4453,2.4443-1.3354,2.4443-.5938,0-2.103-.1572-4.5259-.4766-2.4248-.3174-5.8608-.4766-10.3125-.4766-4.6509,0-8.3091.1592-10.98.4766-2.6709.3193-4.4028.4766-5.1934.4766-.6934,0-1.2383-.2256-1.6323-.6787-.3965-.4531-.5938-1.042-.5938-1.7676,0-.9062.1973-1.5166.5938-1.8359.394-.3164.8901-.5439,1.4839-.6807.5933-.1357,1.2358-.2256,1.9287-.2695.6909-.0449,1.3843-.2041,2.0776-.4766,1.3838-.6338,2.2485-1.4717,2.5967-2.5146.3452-1.042.519-2.6504.519-4.8262V19.8467c0-1.6309-.1738-2.9453-.519-3.9434-.3481-.9951-1.0156-1.8115-2.0034-2.4463-.5933-.3613-1.2378-.6104-1.9287-.7461-.6934-.1357-1.3125-.2939-1.855-.4766-.5449-.1807-1.0156-.4297-1.4097-.7461-.3965-.3174-.5933-.8389-.5933-1.5664,0-1.5391.6675-2.4902,2.0029-2.8516,1.3354-.3623,3.2876-.7705,5.8613-1.2256,2.5708-.542,4.8223-1.1318,6.751-1.7656,1.9292-.6338,3.5615-1.2695,4.897-1.9033s2.397-1.1553,3.1899-1.5635c.7905-.4082,1.4331-.6123,1.9292-.6123,1.5811,0,2.374,1.0439,2.374,3.1309,0,1-.0513,2.1777-.1484,3.5391-.0996,1.3613-.1484,2.8594-.1484,4.4922v25.7285Z"/><path class="cls-2" d="M171.2319,57.583c-1.5835,0-2.374.8164-2.374,2.4502v3.5391c0,3.6309.4937,6.9219,1.4834,9.8691.9878,2.9502,2.3745,5.4688,4.1548,7.5557,1.7808,2.0889,3.9067,3.6992,6.3804,4.833,2.4717,1.1357,5.1426,1.7012,8.0127,1.7012,2.374,0,4.3774-.3613,6.0093-1.0889,1.6323-.7256,3.042-1.5186,4.229-2.3828,1.187-.8613,2.1748-1.6543,2.9678-2.3818.7905-.7256,1.5322-1.0889,2.2256-1.0889.5938,0,1.1128.2275,1.5581.6807.4453.4551.668,1.0439.668,1.7695,0,.8164-.645,2.0205-1.9292,3.6074-1.2866,1.5889-3.0928,3.1543-5.416,4.6963-2.3252,1.5449-5.0957,2.9053-8.3091,4.084-3.2158,1.1787-6.7515,1.7695-10.6094,1.7695-4.4517,0-8.583-.7949-12.3901-2.3818-3.8091-1.5869-7.0737-3.833-9.793-6.7383-2.7222-2.9033-4.8481-6.375-6.3804-10.4141-1.5352-4.0371-2.3003-8.4619-2.3003-13.2725,0-4.9014.791-9.3701,2.3745-13.4092,1.5811-4.0371,3.7837-7.4873,6.603-10.3457,2.8188-2.8594,6.2065-5.082,10.1641-6.6709,3.9551-1.5869,8.3579-2.3818,13.2061-2.3818,3.8579,0,7.3193.5908,10.3867,1.7695,3.0649,1.1807,5.687,2.791,7.8643,4.833,2.1743,2.042,3.832,4.3789,4.9707,7.0107,1.1357,2.6328,1.7061,5.4004,1.7061,8.3037,0,1.5439-.4219,2.6094-1.2612,3.1992-.8413.5908-2.2021.8848-4.0801.8848h-30.1216ZM187.5537,50.7207c1.8779-.9443,2.8193-2.6758,2.8193-5.1963,0-2.6973-.8159-4.8555-2.4482-6.4766-1.6323-1.6191-3.6865-2.4287-6.1577-2.4287-2.8706,0-5.416,1.0117-7.6421,3.0371-2.2256,2.0244-3.5864,5.0156-4.0801,8.9717l-.2969,2.2949v.2705c0,.6289.5425.9443,1.6323.9443h7.7158c3.7578,0,6.5771-.4727,8.4575-1.417Z"/><path class="cls-2" d="M277.7666,43.4248c0,1.2725.5933,1.9062,1.7803,1.9062h24.7798c1.1875,0,1.7808-.6338,1.7808-1.9062v-22.4609c0-1.9951-.3711-3.4717-1.1128-4.4238-.7422-.9531-2.0034-1.6104-3.7837-1.9746-1.6831-.2725-2.8936-.4971-3.6353-.6807-.7422-.1807-1.1133-.8613-1.1133-2.042,0-1.9951.939-2.9941,2.8193-2.9941.5938,0,2.249.1592,4.9707.4756,2.7197.3193,6.603.4766,11.6484.4766s8.9258-.1572,11.6479-.4766c2.7192-.3164,4.377-.4756,4.9707-.4756,1.8779,0,2.8193.999,2.8193,2.9941,0,1-.3223,1.6338-.9648,1.9062-.6445.2725-1.7573.5439-3.3384.8164-1.8804.3643-3.2158.9531-4.0063,1.7695-.793.8174-1.187,2.4062-1.187,4.7646v61.667c0,1.9971.2969,3.4717.8901,4.4248.5938.9521,1.7295,1.6123,3.4131,1.9736,1.7803.3633,3.0903.6357,3.9321.8164.8389.1836,1.2612.8643,1.2612,2.042,0,1.9971-.9414,2.9951-2.8193,2.9951-.6934,0-2.374-.1826-5.0449-.5449-2.6709-.3613-6.5288-.5439-11.5737-.5439s-8.9033.1826-11.5742.5439c-2.6709.3623-4.354.5449-5.0449.5449-1.8804,0-2.8193-1.042-2.8193-3.1309,0-.998.2715-1.6104.8164-1.8379.5425-.2256,1.5581-.4297,3.042-.6123,2.1743-.2725,3.6836-.8389,4.5254-1.7021.8394-.8613,1.2612-2.4717,1.2612-4.832v-29.4043c0-1.2695-.5933-1.9062-1.7808-1.9062h-24.7798c-1.187,0-1.7803.6367-1.7803,1.9062v29.4043c0,1.9971.3711,3.4941,1.1128,4.4922.7417.999,2.0029,1.6328,3.7837,1.9053,1.6812.2725,2.8936.5,3.6353.6807.7422.1836,1.1128.8174,1.1128,1.9062,0,2.0889-.9409,3.1309-2.8188,3.1309-.6934,0-2.3745-.1826-5.0454-.5449-2.6704-.3613-6.5283-.5439-11.5737-.5439s-8.9028.1826-11.5737.5439c-2.6709.3623-4.354.5449-5.0449.5449-1.8804,0-2.8193-.998-2.8193-2.9951,0-.9971.3203-1.6338.9648-1.9053.6421-.2725,1.7549-.5449,3.3384-.8174,1.9775-.3613,3.3384-.9531,4.0806-1.7695.7417-.8164,1.1128-2.4033,1.1128-4.7646V21.0996c0-1.9951-.2969-3.4707-.8901-4.4238-.5938-.9531-1.7319-1.6104-3.4131-1.9736-1.6831-.3623-2.9673-.6572-3.8579-.8848-.8901-.2256-1.3354-.9297-1.3354-2.1104,0-1.9062.939-2.8584,2.8193-2.8584.6909,0,2.374.1592,5.0449.4756,2.6709.3193,6.5288.4766,11.5737.4766s8.9263-.1572,11.6479-.4766c2.7197-.3164,4.3774-.4756,4.9712-.4756,1.8779,0,2.8188.999,2.8188,2.9941,0,1-.2734,1.6338-.8159,1.9062-.5449.2725-1.5581.5-3.042.6807-2.2764.3633-3.8091.9766-4.5996,1.8379-.793.8633-1.187,2.4736-1.187,4.832v22.3252Z"/><path class="cls-2" d="M388.2363,33.9639c4.1035,1.5889,7.542,3.835,10.3125,6.7383,2.7686,2.9062,4.8965,6.3984,6.3809,10.4824,1.4834,4.084,2.2256,8.5762,2.2256,13.4766s-.7676,9.3486-2.2998,13.3408c-1.5352,3.9951-3.7607,7.4189-6.6777,10.2783-2.9189,2.8584-6.4805,5.0596-10.6836,6.6025-4.2051,1.542-8.9277,2.3135-14.1699,2.3135-4.748,0-9.0283-.7949-12.835-2.3818-3.8096-1.5869-7.0996-3.833-9.8677-6.7383-2.7705-2.9033-4.8965-6.375-6.3804-10.4141-1.4839-4.0371-2.2261-8.4619-2.2261-13.2725,0-4.9014.791-9.3701,2.3745-13.4092,1.5811-4.0371,3.7837-7.4873,6.603-10.3457,2.8188-2.8594,6.2319-5.082,10.2378-6.6709,4.0068-1.5869,8.3838-2.3818,13.1318-2.3818,5.1426,0,9.7676.7949,13.874,2.3818ZM364.4951,42.8125c-2.3252,4.1309-3.4873,10.1416-3.4873,18.0371,0,10.0742,1.3848,17.8125,4.1553,23.21,2.7686,5.4014,6.2314,8.1006,10.3867,8.1006,3.7578,0,6.7744-2.0869,9.0508-6.2627,2.2744-4.1729,3.4131-10.209,3.4131-18.1045,0-9.8916-1.3613-17.5615-4.0801-23.0068-2.7227-5.4443-6.1582-8.167-10.3125-8.167-3.7607,0-6.8027,2.0645-9.126,6.1934Z"/><path class="cls-2" d="M438.3125,73.6465c0,10.0732,2.917,15.1104,8.7549,15.1104,3.9551,0,6.5518-1.4297,7.79-4.2881,1.2354-2.8594,1.8545-6.8281,1.8545-11.9121v-25.4561c0-1.9053-.0996-3.4033-.2969-4.4922-.1992-1.0889-.8418-1.9502-1.9287-2.5859-.6934-.3623-1.4355-.5898-2.2256-.6807-.793-.0898-1.5352-.1816-2.2256-.2725-.6934-.0898-1.2617-.3174-1.707-.6807-.4443-.3623-.667-1.043-.667-2.042,0-.998.1963-1.6553.5928-1.9736.3945-.3174.9883-.4766,1.7812-.4766.3936,0,1.4834.0908,3.2637.2715,1.7812.1836,4.292.2725,7.5352.2725,3.6309,0,6.4014-.1123,8.3164-.3398,1.9131-.2256,3.1143-.3408,3.6055-.3408,1.0801,0,1.7412.2959,1.9873.8848.2451.5918.3682,1.8379.3682,3.7441v41.2471c0,1.3613.0977,2.4736.2969,3.335.1973.8643.7422,1.5654,1.6318,2.1104.5938.3633,1.2363.5908,1.9297.6807.6904.0918,1.335.2041,1.9287.3398.5938.1367,1.0869.3408,1.4834.6133.3945.2725.5938.7715.5938,1.4971,0,1.2725-.5449,2.1104-1.6318,2.5186-1.0898.4082-2.8701.8848-5.3418,1.4297-4.9336,1.1797-8.3398,2.2461-10.2129,3.1982-1.876.9531-3.0098,1.4297-3.4033,1.4297-.8906,0-1.5078-.2725-1.8506-.8164-.3457-.5449-.6162-1.4062-.8135-2.5869l-.5918-5.3086-.7412-.1367c-2.5645,2.9951-5.5254,5.2881-8.8779,6.875-3.3545,1.5869-6.7578,2.3818-10.21,2.3818-4.4424,0-7.9453-.6357-10.5098-1.9053-2.5645-1.2705-4.5146-3.084-5.8447-5.4453-1.3311-2.3594-2.1699-5.1943-2.5156-8.5078-.3457-3.3125-.5176-6.9648-.5176-10.959v-23.2783c0-1.9951-.0996-3.5156-.2969-4.5605-.1992-1.042-.792-1.8818-1.7803-2.5176-.5938-.3623-1.2129-.5664-1.8545-.6133-.6445-.0449-1.2617-.1357-1.8545-.2725-.5938-.1357-1.0898-.3848-1.4844-.748-.3965-.3623-.5938-.998-.5938-1.9062,0-.9971.1973-1.6543.5938-1.9736.3945-.3174,1.0391-.4766,1.9287-.4766.791,0,1.9785.0684,3.5615.2041,1.5811.1367,3.6582.2041,6.2324.2041,3.4609,0,6.1572-.1123,8.0869-.3398,1.9287-.2256,3.1387-.3408,3.6348-.3408,1.0879,0,1.7295.2275,1.9287.6807.1973.4551.2969,1.4082.2969,2.8594v36.3467Z"/><path class="cls-2" d="M522.3716,32.2627c2.6201.4551,4.8711,1.0439,6.751,1.7695,1.3848.4551,2.2256,1,2.5225,1.6338.2969.6357.4453,1.6338.4453,2.9951,0,1.5439-.0254,2.8584-.0742,3.9473-.0508,1.0889-.0742,1.9531-.0742,2.5869,0,2.1777-.8418,3.2666-2.5225,3.2666-1.0898,0-2.0537-.6338-2.8936-1.9053-.8418-1.2705-1.8057-2.6758-2.8936-4.2207-1.0898-1.542-2.3994-2.9482-3.9316-4.2197-1.5352-1.2695-3.4873-1.9062-5.8613-1.9062-2.8701,0-5.1445.6602-6.8252,1.9746-1.6836,1.3164-2.5225,2.9736-2.5225,4.9688,0,1.3613.3711,2.4971,1.1123,3.4033.7422.9082,1.7295,1.748,2.9678,2.5176,1.2363.7725,2.7451,1.5215,4.5254,2.2461,1.7812.7275,3.71,1.498,5.7871,2.3145,2.7686,1.0889,5.1934,2.2695,7.2705,3.54,2.0781,1.2715,3.8076,2.6777,5.1934,4.2197,1.3848,1.5439,2.4482,3.335,3.1904,5.377s1.1133,4.3799,1.1133,7.0107c0,3.4502-.6445,6.6025-1.9297,9.4609-1.2861,2.8584-3.1406,5.3096-5.5635,7.3516-2.4258,2.041-5.3193,3.6533-8.6807,4.832-3.3643,1.1787-7.1221,1.7695-11.2773,1.7695-5.7383,0-10.3638-.8633-13.8735-2.5859-3.5127-1.7227-5.2676-3.9014-5.2676-6.5342,0-4.9014.1963-8.417.5928-10.5508.3945-2.1309,1.1367-3.1982,2.2266-3.1982.79,0,1.4092.251,1.8545.748.4453.5.8643,1.1807,1.2607,2.042.3945.8643.8164,1.8848,1.2617,3.0635.4453,1.1797,1.0615,2.4502,1.8545,3.8115,3.0654,5.4453,7.3198,8.168,12.7612,8.168,3.165,0,5.7871-.8574,7.8643-2.5742s3.1162-3.75,3.1162-6.1006c0-1.4443-.1992-2.6631-.5938-3.6582-.3965-.9932-1.0381-1.8975-1.9287-2.71s-2.0283-1.5801-3.4131-2.3037c-1.3857-.7227-3.0186-1.4902-4.8965-2.3037-2.8701-1.3545-5.5898-2.6201-8.1611-3.7939-2.5737-1.1738-4.8228-2.5078-6.7515-3.999-1.9287-1.4893-3.4639-3.25-4.5996-5.2832-1.1387-2.0342-1.707-4.6309-1.707-7.7939,0-5.9619,2.1748-10.7949,6.5293-14.5,4.3516-3.7051,10.3364-5.5576,17.9546-5.5576,2.7686,0,5.4648.2275,8.0869.6807Z"/><path class="cls-2" d="M564.436,57.583c-1.583,0-2.374.8164-2.374,2.4502v3.5391c0,3.6309.4941,6.9219,1.4844,9.8691.9873,2.9502,2.374,5.4688,4.1543,7.5557,1.7803,2.0889,3.9062,3.6992,6.3809,4.833,2.4707,1.1357,5.1416,1.7012,8.0127,1.7012,2.374,0,4.377-.3613,6.0088-1.0889,1.6328-.7256,3.042-1.5186,4.2295-2.3828,1.1865-.8613,2.1748-1.6543,2.9668-2.3818.791-.7256,1.5332-1.0889,2.2266-1.0889.5928,0,1.1123.2275,1.5576.6807.4453.4551.668,1.0439.668,1.7695,0,.8164-.6445,2.0205-1.9297,3.6074-1.2861,1.5889-3.0928,3.1543-5.415,4.6963-2.3262,1.5449-5.0967,2.9053-8.3096,4.084-3.2158,1.1787-6.752,1.7695-10.6094,1.7695-4.4512,0-8.583-.7949-12.3896-2.3818-3.8096-1.5869-7.0742-3.833-9.7939-6.7383-2.7217-2.9033-4.8477-6.375-6.3799-10.4141-1.5352-4.0371-2.2998-8.4619-2.2998-13.2725,0-4.9014.79-9.3701,2.374-13.4092,1.5811-4.0371,3.7832-7.4873,6.6025-10.3457,2.8193-2.8594,6.207-5.082,10.1641-6.6709,3.9561-1.5869,8.3584-2.3818,13.2061-2.3818,3.8584,0,7.3193.5908,10.3867,1.7695,3.0654,1.1807,5.6875,2.791,7.8643,4.833,2.1748,2.042,3.833,4.3789,4.9707,7.0107,1.1367,2.6328,1.707,5.4004,1.707,8.3037,0,1.5439-.4219,2.6094-1.2617,3.1992-.8418.5908-2.2021.8848-4.0801.8848h-30.1221ZM580.7583,50.7207c1.8779-.9443,2.8193-2.6758,2.8193-5.1963,0-2.6973-.8164-4.8555-2.4482-6.4766-1.6318-1.6191-3.6865-2.4287-6.1582-2.4287-2.8701,0-5.416,1.0117-7.6416,3.0371-2.2256,2.0244-3.5869,5.0156-4.0801,8.9717l-.2969,2.2949v.2705c0,.6289.542.9443,1.6318.9443h7.7158c3.7588,0,6.5781-.4727,8.458-1.417Z"/><path class="cls-2" d="M687.812,33.9639c4.1035,1.5889,7.542,3.835,10.3125,6.7383,2.7686,2.9062,4.8965,6.3984,6.3809,10.4824,1.4834,4.084,2.2256,8.5762,2.2256,13.4766s-.7676,9.3486-2.2998,13.3408c-1.5352,3.9951-3.7607,7.4189-6.6777,10.2783-2.9189,2.8584-6.4805,5.0596-10.6836,6.6025-4.2051,1.542-8.9277,2.3135-14.1699,2.3135-4.748,0-9.0283-.7949-12.835-2.3818-3.8096-1.5869-7.0996-3.833-9.8682-6.7383-2.7705-2.9033-4.8965-6.375-6.3799-10.4141-1.4844-4.0371-2.2256-8.4619-2.2256-13.2725,0-4.9014.79-9.3701,2.374-13.4092,1.5811-4.0371,3.7832-7.4873,6.6025-10.3457,2.8193-2.8594,6.2324-5.082,10.2383-6.6709,4.0068-1.5869,8.3838-2.3818,13.1318-2.3818,5.1426,0,9.7676.7949,13.874,2.3818ZM664.0708,42.8125c-2.3252,4.1309-3.4873,10.1416-3.4873,18.0371,0,10.0742,1.3848,17.8125,4.1553,23.21,2.7686,5.4014,6.2314,8.1006,10.3867,8.1006,3.7578,0,6.7744-2.0869,9.0508-6.2627,2.2744-4.1729,3.4131-10.209,3.4131-18.1045,0-9.8916-1.3613-17.5615-4.0801-23.0068-2.7227-5.4443-6.1582-8.167-10.3125-8.167-3.7607,0-6.8027,2.0645-9.126,6.1934Z"/><path class="cls-2" d="M738.4829,32.2627c0,1.2715.5938,1.9053,1.7803,1.9053h10.5352c.6914,0,1.1133.1152,1.2617.3408.1484.2275.2227.7041.2227,1.4297v2.9941c0,1.1807-.4453,1.7695-1.3359,1.7695h-10.6836c-1.1865,0-1.7803.6348-1.7803,1.9023v38.9688c0,1.9932.1973,3.5332.5938,4.6182.3936,1.0869,1.1357,1.9014,2.2256,2.4443.8906.4521,1.8037.7012,2.7451.7461.9385.0469,1.8037.1152,2.5967.2041.79.0918,1.458.2959,2.0029.6123.543.3174.8164.9727.8164,1.9678,0,1.7207-.8906,2.5801-2.6709,2.5801-.6934,0-2.4736-.1807-5.3418-.542-2.8701-.3623-6.9258-.5449-12.167-.5449-4.6514,0-8.3096.1602-10.9805.4766-2.6709.3174-4.4033.4746-5.1934.4746-.6934,0-1.2383-.2256-1.6328-.6787-.3965-.4531-.5928-1.042-.5928-1.7676,0-.9062.1963-1.5166.5928-1.8359.3945-.3164.8906-.5439,1.4844-.6807.5938-.1357,1.2607-.2256,2.0029-.2695.7422-.0449,1.4102-.2041,2.0029-.4766,1.3848-.6338,2.249-1.4717,2.5967-2.5146.3457-1.042.5195-2.6504.5195-4.8262v-39.5566c0-1.2676-.5938-1.9033-1.7803-1.9033h-4.1553c-.793,0-1.4346-.249-1.9287-.7461-.4961-.498-.7422-1.0215-.7422-1.5654,0-.8154.2969-1.4492.8906-1.9023s1.4326-.9062,2.5225-1.3584l3.4131-1.6318c.6904-.3613,1.21-.6338,1.5576-.8164.3457-.1816.5684-.6787.668-1.4961l.5938-5.4365c.3936-3.9863,1.3838-7.5439,2.9678-10.6709,1.5811-3.127,3.5605-5.7539,5.9346-7.8828s5.1191-3.7607,8.2354-4.8945c3.1162-1.1318,6.4551-1.6992,10.0156-1.6992,4.4521,0,7.9385.6357,10.4609,1.9053,2.5225,1.2725,3.7842,2.6787,3.7842,4.2207,0,1.4521-.2734,2.9941-.8164,4.6279-.5449,1.6338-1.2383,3.1543-2.0771,4.5605-.8418,1.4082-1.7061,2.5654-2.5967,3.4717-.8906.9082-1.6836,1.3613-2.374,1.3613-1.2871,0-2.251-.7939-2.8936-2.3828-.6445-1.5869-1.5098-3.5605-2.5967-5.9219-.793-1.9053-1.6318-3.3115-2.5225-4.2197-.8906-.9062-1.6836-1.3613-2.374-1.3613-3.8584,0-5.7871,6.8535-5.7871,20.5557v5.4453Z"/><path class="cls-2" d="M852.5854,77.5938c2.0781,5.9902,4.4004,9.6211,6.9746,10.8906.5928.2725,1.2607.4766,2.0029.6123.7422.1367,1.4326.2959,2.0771.4766.6426.1826,1.1621.4766,1.5586.8848.3936.4082.5928,1.0215.5928,1.8379,0,1-.3223,1.6572-.9639,1.9736-.6445.3193-1.6582.4766-3.042.4766-1.0898,0-2.8936-.1572-5.416-.4766-2.5225-.3164-5.8613-.4766-10.0156-.4766-3.7607,0-7.0742.2041-9.9414.6133-2.8711.4082-5.2451.6123-7.123.6123-2.2764,0-3.4121-.9062-3.4121-2.7227,0-1.2695.4189-2.0869,1.2607-2.4502.8398-.3613,1.7295-.6338,2.6709-.8174.9395-.1807,1.8291-.4521,2.6709-.8164.8398-.3613,1.2617-1.1787,1.2617-2.4502,0-.6338-.1484-1.4512-.4453-2.4502l-5.0449-15.1104c-.4961-1.542-1.6328-2.4268-3.4131-2.6553-1.7803-.2246-5.0449-.3398-9.793-.3398-2.5732,0-4.625.0234-6.1582.0684-1.5342.0469-2.6963.2041-3.4863.4766-.793.2715-1.3613.6592-1.707,1.1562-.3477.5-.668,1.2041-.9639,2.1104-1.8809,6.0811-2.8193,10.21-2.8193,12.3877,0,1.7256.3193,3.0635.9639,4.0156.6426.9531,2.0518,1.8379,4.2295,2.6553,1.9775.7275,3.584,1.248,4.8223,1.5654,1.2354.3184,1.8545,1.2041,1.8545,2.6543,0,1.8164-1.0381,2.7227-3.1162,2.7227-.3965,0-1.6826-.1592-3.8574-.4766-2.1768-.3164-5.3418-.4766-9.4971-.4766-3.167,0-5.541.1602-7.1221.4766-1.583.3174-2.5713.4766-2.9678.4766-1.9775,0-2.9678-.8613-2.9678-2.5869,0-1.542.5195-2.4717,1.5586-2.79,1.0381-.3174,2.251-.7939,3.6348-1.4297,1.1875-.5449,2.1748-1.4502,2.9678-2.7227.791-1.2695,1.5811-2.9482,2.374-5.0371l24.6318-68.7451c.8906-2.3594,1.7295-3.833,2.5225-4.4248.791-.5889,1.9775-.8848,3.5615-.8848,1.7803,0,2.9414.3193,3.4863.9531.543.6357,1.2109,2.1338,2.0029,4.4922l23.5928,65.751ZM815.3423,33.3516c-.3965,0-.7422.5449-1.0391,1.6338l-7.2705,22.1895c-.1992.5439-.2969.8633-.2969.9521,0,.4551.4453.6807,1.3359.6807h14.6895c.9873,0,1.4834-.2715,1.4834-.8164,0-.6338-.0508-1.1338-.1484-1.4971l-7.8643-21.6455c-.2959-.9971-.5928-1.4971-.8896-1.4971Z"/><path class="cls-2" d="M897.9155,32.2627c2.6201.4551,4.8711,1.0439,6.751,1.7695,1.3848.4551,2.2256,1,2.5225,1.6338.2969.6357.4453,1.6338.4453,2.9951,0,1.5439-.0254,2.8584-.0742,3.9473-.0508,1.0889-.0742,1.9531-.0742,2.5869,0,2.1777-.8418,3.2666-2.5225,3.2666-1.0898,0-2.0537-.6338-2.8936-1.9053-.8418-1.2705-1.8057-2.6758-2.8936-4.2207-1.0898-1.542-2.3994-2.9482-3.9316-4.2197-1.5352-1.2695-3.4873-1.9062-5.8613-1.9062-2.8701,0-5.1445.6602-6.8252,1.9746-1.6836,1.3164-2.5225,2.9736-2.5225,4.9688,0,1.3613.3711,2.4971,1.1123,3.4033.7422.9082,1.7295,1.748,2.9678,2.5176,1.2363.7725,2.7451,1.5215,4.5254,2.2461,1.7812.7275,3.71,1.498,5.7871,2.3145,2.7686,1.0889,5.1934,2.2695,7.2705,3.54,2.0781,1.2715,3.8076,2.6777,5.1934,4.2197,1.3848,1.5439,2.4482,3.335,3.1904,5.377s1.1133,4.3799,1.1133,7.0107c0,3.4502-.6445,6.6025-1.9297,9.4609-1.2861,2.8584-3.1406,5.3096-5.5635,7.3516-2.4258,2.041-5.3193,3.6533-8.6807,4.832-3.3643,1.1787-7.1221,1.7695-11.2773,1.7695-5.7383,0-10.3633-.8633-13.873-2.5859-3.5127-1.7227-5.2676-3.9014-5.2676-6.5342,0-4.9014.1963-8.417.5928-10.5508.3945-2.1309,1.1367-3.1982,2.2266-3.1982.79,0,1.4092.251,1.8545.748.4453.5.8643,1.1807,1.2607,2.042.3945.8643.8164,1.8848,1.2617,3.0635.4453,1.1797,1.0615,2.4502,1.8545,3.8115,3.0654,5.4453,7.3193,8.168,12.7607,8.168,3.165,0,5.7871-.8574,7.8643-2.5742s3.1162-3.75,3.1162-6.1006c0-1.4443-.1992-2.6631-.5938-3.6582-.3965-.9932-1.0381-1.8975-1.9287-2.71s-2.0283-1.5801-3.4131-2.3037c-1.3857-.7227-3.0186-1.4902-4.8965-2.3037-2.8701-1.3545-5.5898-2.6201-8.1611-3.7939-2.5732-1.1738-4.8223-2.5078-6.751-3.999-1.9287-1.4893-3.4639-3.25-4.5996-5.2832-1.1387-2.0342-1.707-4.6309-1.707-7.7939,0-5.9619,2.1748-10.7949,6.5293-14.5,4.3516-3.7051,10.3359-5.5576,17.9541-5.5576,2.7686,0,5.4648.2275,8.0869.6807Z"/><path class="cls-2" d="M943.0962,32.2627c0,1.2715.543,1.9053,1.6328,1.9053h9.4961c.9873,0,1.5811.1602,1.7803.4766.1973.3193.2969.8408.2969,1.5654v2.042c0,1-.0996,1.7256-.2969,2.1787-.1992.4551-.793.6807-1.7803.6807h-9.4961c-1.0898,0-1.6328.6357-1.6328,1.9053l-.4453,28.043v2.4502c0,4.6289.2715,8.0322.8164,10.21.543,2.1777,1.6064,3.2676,3.1904,3.2676.6904,0,1.4092-.1816,2.1514-.5449.7422-.3613,1.458-.7705,2.1514-1.2256.6914-.4531,1.3096-.8613,1.8545-1.2246.543-.3613,1.0137-.5449,1.4102-.5449.4941,0,1.0381.2959,1.6318.8848.5938.5918.8906,1.1572.8906,1.7021,0,.9082-.5449,1.9971-1.6318,3.2666-1.0898,1.2725-2.5234,2.4971-4.3037,3.6758-1.7803,1.1807-3.8086,2.1777-6.083,2.9951-2.2773.8164-4.6006,1.2246-6.9746,1.2246-5.0449,0-8.5576-1.4756-10.5352-4.4238-1.9795-2.9482-2.9678-7.4639-2.9678-13.5449v-5.0371l.5938-29.2676c0-1.2705-.0996-2.291-.2969-3.0635-.1992-.7695-.793-1.1572-1.7803-1.1572h-2.6709c-2.2764,0-3.4131-.7246-3.4131-2.1777,0-.8164.3711-1.542,1.1133-2.1777.7422-.6338,1.7061-1.293,2.8936-1.9736,1.1865-.6807,2.5713-1.5195,4.1543-2.5186,1.5811-.998,3.2139-2.3145,4.8965-3.9482,1.3848-1.3613,2.5967-2.6758,3.6357-3.9473,1.0381-1.2705,1.9775-2.4277,2.8193-3.4717.8389-1.042,1.6064-1.8594,2.2998-2.4502.6904-.5889,1.4326-.8848,2.2256-.8848,1.0879,0,1.7549.3193,2.0029.9531.2461.6357.3711,1.5439.3711,2.7227v11.4346Z"/><path class="cls-2" d="M983.603,57.583c-1.583,0-2.374.8164-2.374,2.4502v3.5391c0,3.6309.4941,6.9219,1.4844,9.8691.9873,2.9502,2.374,5.4688,4.1543,7.5557,1.7803,2.0889,3.9062,3.6992,6.3809,4.833,2.4707,1.1357,5.1416,1.7012,8.0127,1.7012,2.374,0,4.377-.3613,6.0088-1.0889,1.6328-.7256,3.042-1.5186,4.2295-2.3828,1.1865-.8613,2.1748-1.6543,2.9668-2.3818.791-.7256,1.5332-1.0889,2.2266-1.0889.5928,0,1.1123.2275,1.5576.6807.4453.4551.668,1.0439.668,1.7695,0,.8164-.6445,2.0205-1.9297,3.6074-1.2861,1.5889-3.0928,3.1543-5.415,4.6963-2.3262,1.5449-5.0967,2.9053-8.3096,4.084-3.2158,1.1787-6.752,1.7695-10.6094,1.7695-4.4512,0-8.583-.7949-12.3896-2.3818-3.8096-1.5869-7.0742-3.833-9.7939-6.7383-2.7217-2.9033-4.8477-6.375-6.3799-10.4141-1.5352-4.0371-2.2998-8.4619-2.2998-13.2725,0-4.9014.79-9.3701,2.374-13.4092,1.5811-4.0371,3.7832-7.4873,6.6025-10.3457,2.8193-2.8594,6.207-5.082,10.1641-6.6709,3.9561-1.5869,8.3584-2.3818,13.2061-2.3818,3.8584,0,7.3193.5908,10.3867,1.7695,3.0654,1.1807,5.6875,2.791,7.8643,4.833,2.1748,2.042,3.833,4.3789,4.9707,7.0107,1.1367,2.6328,1.707,5.4004,1.707,8.3037,0,1.5439-.4219,2.6094-1.2617,3.1992-.8418.5908-2.2021.8848-4.0801.8848h-30.1221ZM999.9253,50.7207c1.8779-.9443,2.8193-2.6758,2.8193-5.1963,0-2.6973-.8164-4.8555-2.4482-6.4766-1.6318-1.6191-3.6865-2.4287-6.1582-2.4287-2.8701,0-5.416,1.0117-7.6416,3.0371-2.2256,2.0244-3.5869,5.0156-4.0801,8.9717l-.2969,2.2949v.2705c0,.6289.542.9443,1.6318.9443h7.7158c3.7588,0,6.5781-.4727,8.458-1.417Z"/><path class="cls-2" d="M1050.522,39.0693c0,.9082.1484,1.3613.4453,1.3613s.6914-.2725,1.1875-.8174l1.335-1.6328c3.2646-3.8125,6.8252-5.7178,10.6836-5.7178,3.165,0,5.7363.9531,7.7158,2.8584,1.9775,1.9062,2.9678,4.4033,2.9678,7.4873,0,3.4502-.8906,6.1045-2.6709,7.9639-1.7803,1.8613-4.0068,2.79-6.6777,2.79-1.7803,0-3.2412-.4082-4.377-1.2246-1.1387-.8174-2.1025-1.7021-2.8936-2.6543-.793-.9531-1.5088-1.8379-2.1514-2.6553-.6445-.8164-1.3125-1.2246-2.0029-1.2246-1.9805,0-2.9678,2.2695-2.9678,6.8066v29.1738c0,1.9912.123,3.5078.3711,4.5479.2461,1.04.9131,1.876,2.0029,2.5078.6914.4531,1.4326.7021,2.2256.7461.791.0469,1.5068.1152,2.1514.2041.6426.0918,1.1875.2959,1.6328.6113.4453.3164.668.9717.668,1.9668,0,1.6299-.5449,2.4424-1.6328,2.4424-.793,0-2.5732-.1572-5.3418-.4766-2.7705-.3174-6.5283-.4766-11.2764-.4766s-8.458.1592-11.1289.4766c-2.6709.3193-4.3545.4766-5.0449.4766-.6934,0-1.2383-.2256-1.6328-.6787-.3965-.4531-.5928-1.042-.5928-1.7676,0-.9043.1963-1.5146.5928-1.8311.3945-.3174.8906-.5449,1.4844-.6807.5938-.1367,1.2354-.2256,1.9287-.2725.6914-.0449,1.3838-.2021,2.0771-.4746,1.3848-.6338,2.249-1.4697,2.5967-2.5117.3457-1.042.5195-2.6504.5195-4.8242v-27.4404c0-.4531-.0254-.9062-.0742-1.3594-.0508-.4512-.0742-.9961-.0742-1.6299,0-1.2676-.1992-2.2861-.5938-3.0566-.3965-.7695-1.1865-1.335-2.374-1.6992-1.4834-.3613-2.7217-.5869-3.709-.6787-.9902-.0889-1.4844-.7695-1.4844-2.0371,0-.8145.2461-1.4492.7422-1.9014.4941-.4512,1.1875-.8154,2.0771-1.0869.8906-.2725,1.9521-.5664,3.1904-.8828,1.2354-.3174,2.5967-.7939,4.0801-1.4277,2.0781-.9043,3.833-1.8545,5.2676-2.8496,1.4336-.9961,2.6709-1.9492,3.71-2.8545,1.0391-.9062,1.9287-1.6533,2.6709-2.2422.7422-.5869,1.458-.8828,2.1514-.8828,1.0879,0,1.7295.3193,1.9287.9531.1973.6357.2969,1.4521.2969,2.4502v6.126Z"/></g></g></svg>