<svg id="Layer_1" data-name="Layer 1" xmlns="http://www.w3.org/2000/svg" viewBox="0 0 585.65 584.23"><defs><style>.cls-1{fill:#231f20;}</style></defs><path class="cls-1" d="M209.57,349.74H171.76v-2.16c9,0,7.3-9.45,3.49-18.74l-5.81-14.42H126.5c-4.48,13.26-11.78,33.82,11.27,33.16v2.16h-37v-2.16c6.3-.16,10.45-.83,24.88-39.13L153.36,233h1.82C175.41,281.75,196,334.15,196,334.15c5.48,13.27,9,13.1,13.6,13.43Zm-40.79-37.48-21.72-55.05L127,312.26Z"/><path class="cls-1" d="M252.35,351.23c-20.07,0-29-6.63-29-6.63V322.05h2.15c1.17,10.94,5.31,27,26.87,27,17.58,0,15.42-17.57,2.82-25.86l-16.75-10.12c-15.92-10.61-19.57-20.56-12.94-32,0,0,5-9.46,21.89-9.46,19.07,0,27,5.31,27,5.31v20.23h-2c-1.16-9.78-5.8-23.38-25-23.38-15.75,0-16.91,15.59-2.48,24.71l16.74,10.44c14.93,9.29,19.74,22.72,11.78,34.16C273.41,343.1,267.77,351.23,252.35,351.23Z"/><path class="cls-1" d="M337.41,337c-2.32,7.29-9.78,14.26-19.4,14.26-12.1,0-19.4-5.31-19.4-25.37V275.28h-8.46l-.33-2.15h8.79V249.58L313,247.26v25.87h19.73l-.5,2.15H313v50.08c0,13.27,4.81,17.74,12.6,17.74a11.25,11.25,0,0,0,10.11-7Z"/><path class="cls-1" d="M413.85,330.17c-1.82,7.79-10.94,21.06-30.51,21.06-20.73,0-35.48-17.25-35.48-39.13,0-24.55,15.58-40.47,36.15-40.47,19.23,0,32.5,12.28,32.5,38.31H363.44c.67,22.39,10.62,31.34,23.72,32.67,9.94,1,21.72-5.14,24.7-13.27Zm-11.6-22.39c0-24.21-10.78-34-18.74-34-9.45,0-20.07,13.1-20.07,34Z"/><path class="cls-1" d="M482.67,275.28a9.06,9.06,0,0,1-1.16,12.94,9.22,9.22,0,0,1-12.94-1.16,7.53,7.53,0,0,1-1.82-6.3c.49-2.82-10.62,1.16-15.76,12.27v41.29c0,9.28.83,11.77,6.8,13.26v2.16h-28v-2.16c6.3-1.82,6.63-4.64,6.63-13.26V288.38c0-5.8-1.49-8.12-8.29-9.95v-2L451,271.63v17.42c6.14-11.28,15.59-16.09,22.22-16.92C476.2,271.8,480.35,272.63,482.67,275.28Z"/></svg>